<svg xmlns="http://www.w3.org/2000/svg" viewBox="0 0 314.15 222.02"><defs><style>.cls-1,.cls-2{fill:#624e59;}.cls-10,.cls-2,.cls-7{stroke:#ec008c;}.cls-2,.cls-4,.cls-7{stroke-miterlimit:10;}.cls-2{stroke-width:3px;}.cls-11,.cls-3,.cls-8{fill:#fff;}.cls-4{fill:#fad5e5;stroke:#fad5e5;stroke-width:5px;}.cls-5{fill:#ec008c;}.cls-6{fill:#f188b6;}.cls-7,.cls-8{font-size:96.65px;}.cls-10,.cls-7{fill:none;stroke-width:15px;}.cls-10,.cls-11,.cls-12,.cls-7,.cls-8,.cls-9{font-family:ChangaOne, Changa One;}.cls-10,.cls-11,.cls-9{font-size:40.42px;}.cls-9{fill:#231f20;}.cls-12{font-size:10px;fill:#ee5da1;}</style></defs><title>Asset 1</title><g id="Layer_2" data-name="Layer 2"><g id="Layer_1-2" data-name="Layer 1"><path class="cls-1" d="M137.42,4.52h0A7.86,7.86,0,0,0,148.1,3h0A7.86,7.86,0,0,1,160,2.51h0a7.84,7.84,0,0,0,10.76.71h0a7.87,7.87,0,0,1,11.76,2h0a7.85,7.85,0,0,0,10.38,2.94h0A7.85,7.85,0,0,1,204,12.6h0a7.84,7.84,0,0,0,9.54,5h0a7.87,7.87,0,0,1,9.92,6.63h0a7.83,7.83,0,0,0,8.29,6.9h0a7.86,7.86,0,0,1,8.32,8.55h0a7.85,7.85,0,0,0,6.68,8.47h0a7.86,7.86,0,0,1,6.36,10.09h0a7.85,7.85,0,0,0,4.77,9.68h0A7.85,7.85,0,0,1,262,79.13h0a7.86,7.86,0,0,0,2.66,10.46h0a7.86,7.86,0,0,1,1.7,11.8h0a7.85,7.85,0,0,0,.43,10.78h0a7.86,7.86,0,0,1-.79,11.9h0a7.87,7.87,0,0,0-1.83,10.64h0a7.84,7.84,0,0,1-3.24,11.47h0a7.87,7.87,0,0,0-4,10h0a7.86,7.86,0,0,1-5.56,10.55h0a7.85,7.85,0,0,0-6,9h0a7.85,7.85,0,0,1-7.63,9.16h0a7.86,7.86,0,0,0-7.73,7.53h0a7.86,7.86,0,0,1-9.37,7.38h0a7.86,7.86,0,0,0-9.13,5.76h0a7.85,7.85,0,0,1-10.69,5.27h0a7.86,7.86,0,0,0-10.13,3.73h0a7.85,7.85,0,0,1-11.56,2.93h0A7.86,7.86,0,0,0,168.46,219h0a7.85,7.85,0,0,1-11.91.46h0a7.86,7.86,0,0,0-10.77-.7h0a7.85,7.85,0,0,1-11.75-2h0a7.87,7.87,0,0,0-10.39-2.93h0a7.85,7.85,0,0,1-11.07-4.42h0a7.87,7.87,0,0,0-9.55-5h0a7.85,7.85,0,0,1-9.91-6.63h0a7.87,7.87,0,0,0-8.3-6.9h0a7.86,7.86,0,0,1-8.32-8.54h0a7.85,7.85,0,0,0-6.68-8.48h0a7.86,7.86,0,0,1-6.36-10.09h0a7.84,7.84,0,0,0-4.77-9.67h0a7.86,7.86,0,0,1-4.12-11.19h0a7.86,7.86,0,0,0-2.65-10.46h0a7.86,7.86,0,0,1-1.71-11.81h0a7.86,7.86,0,0,0-.42-10.78h0a7.86,7.86,0,0,1,.78-11.9h0a7.85,7.85,0,0,0,1.83-10.63h0a7.86,7.86,0,0,1,3.24-11.48h0a7.85,7.85,0,0,0,4-10h0a7.85,7.85,0,0,1,5.56-10.55h0a7.86,7.86,0,0,0,6-9h0a7.85,7.85,0,0,1,7.62-9.17h0a7.84,7.84,0,0,0,7.73-7.53h0a7.86,7.86,0,0,1,9.37-7.38h0A7.86,7.86,0,0,0,105,16.46h0a7.85,7.85,0,0,1,10.7-5.27h0a7.85,7.85,0,0,0,10.12-3.74h0A7.86,7.86,0,0,1,137.42,4.52Z"/><circle class="cls-2" cx="158.28" cy="111.01" r="99.12"/><path class="cls-3" d="M141,22.72h0a6.5,6.5,0,0,0,8.85-1.28h0a6.52,6.52,0,0,1,9.88-.39h0a6.51,6.51,0,0,0,8.93.59h0a6.51,6.51,0,0,1,9.74,1.68h0A6.52,6.52,0,0,0,187,25.75h0a6.51,6.51,0,0,1,9.18,3.67h0a6.52,6.52,0,0,0,7.92,4.16h0a6.52,6.52,0,0,1,8.22,5.5h0a6.51,6.51,0,0,0,6.88,5.72h0a6.51,6.51,0,0,1,6.89,7.09h0a6.5,6.5,0,0,0,5.54,7h0a6.52,6.52,0,0,1,5.27,8.37h0a6.51,6.51,0,0,0,4,8h0a6.52,6.52,0,0,1,3.42,9.28h0a6.51,6.51,0,0,0,2.2,8.67h0a6.52,6.52,0,0,1,1.41,9.79h0a6.5,6.5,0,0,0,.35,8.93h0a6.51,6.51,0,0,1-.65,9.87h0a6.51,6.51,0,0,0-1.51,8.82h0a6.51,6.51,0,0,1-2.69,9.51h0a6.52,6.52,0,0,0-3.32,8.31h0a6.51,6.51,0,0,1-4.6,8.75h0a6.52,6.52,0,0,0-5,7.44h0a6.51,6.51,0,0,1-6.32,7.6h0a6.51,6.51,0,0,0-6.41,6.24h0a6.52,6.52,0,0,1-7.77,6.12h0a6.51,6.51,0,0,0-7.57,4.77h0a6.5,6.5,0,0,1-8.86,4.37h0a6.51,6.51,0,0,0-8.4,3.1h0a6.52,6.52,0,0,1-9.58,2.43h0a6.52,6.52,0,0,0-8.86,1.28h0a6.51,6.51,0,0,1-9.88.38h0a6.5,6.5,0,0,0-8.92-.58h0a6.52,6.52,0,0,1-9.75-1.68h0a6.51,6.51,0,0,0-8.61-2.43h0a6.51,6.51,0,0,1-9.18-3.67h0a6.52,6.52,0,0,0-7.92-4.17h0a6.51,6.51,0,0,1-8.22-5.49h0a6.5,6.5,0,0,0-6.87-5.72h0a6.51,6.51,0,0,1-6.9-7.09h0a6.52,6.52,0,0,0-5.54-7h0a6.5,6.5,0,0,1-5.27-8.36h0a6.51,6.51,0,0,0-4-8h0a6.51,6.51,0,0,1-3.41-9.28h0a6.52,6.52,0,0,0-2.2-8.67h0A6.51,6.51,0,0,1,68.67,119h0a6.51,6.51,0,0,0-.35-8.94h0a6.51,6.51,0,0,1,.65-9.86h0a6.52,6.52,0,0,0,1.52-8.82h0a6.52,6.52,0,0,1,2.68-9.52h0a6.51,6.51,0,0,0,3.32-8.31h0a6.51,6.51,0,0,1,4.61-8.74h0a6.52,6.52,0,0,0,5-7.44h0a6.51,6.51,0,0,1,6.32-7.6h0a6.5,6.5,0,0,0,6.41-6.24h0a6.52,6.52,0,0,1,7.77-6.12h0a6.52,6.52,0,0,0,7.57-4.77h0A6.51,6.51,0,0,1,123,28.25h0a6.51,6.51,0,0,0,8.39-3.1h0A6.52,6.52,0,0,1,141,22.72Z"/><circle class="cls-4" cx="158.28" cy="111.01" r="92.1"/><path class="cls-5" d="M235.49,143.13a27.76,27.76,0,0,1-2,5.77,14.74,14.74,0,0,1-1.93,3.26c-.63.67,1.19.23-.47-.24-4.91-1.4-9.93-2.4-14.84-3.79a133.21,133.21,0,0,1-14.42-4.81c-4.69-1.92-9.09-4.67-14-6.14-10.3-3.13-20.74.95-30.84,2.93a153.56,153.56,0,0,1-33.36,2.64l5.3,12.8L131,154c5.19-4,.78-13.09-5.31-12.81a426.37,426.37,0,0,1-51.8-.72c-4.17-.32-7.34,3.69-7.5,7.5A14.54,14.54,0,0,0,77.2,162.56c9.28,2.73,13.24-11.74,4-14.46.08,0,.16,1.15.22-.16l-7.5,7.5a426.37,426.37,0,0,0,51.8.72l-5.3-12.8-2,1.59c-5.44,4.23-.57,12.66,5.31,12.8A172.72,172.72,0,0,0,161,154.58c5.78-1.14,11.68-3.38,17.58-3.58s11.19,3.39,16.55,5.66A178.8,178.8,0,0,0,228,166.59c5.87,1.23,10.84.32,14.76-4.48a38.43,38.43,0,0,0,7.21-15c2.37-9.36-12.09-13.35-14.46-4Z"/><path class="cls-3" d="M256.42,112c-.12,1-.56,1.63.13.44a11.94,11.94,0,0,0,1.15-3.06,12.56,12.56,0,0,0-.19-6.15c-1-3.48-2.48-6.88-3.71-10.26-1.38-3.81-5.1-6.38-9.23-5.24-3.67,1-6.62,5.4-5.23,9.22l1.71,4.71c.47,1.31.84,3.63,1.71,4.71.32,1.3.45,1.11.39-.54.17-.42.06-.19-.32.68-1,1.67-1.18,3.6-1.41,5.49-.5,4,3.8,7.5,7.5,7.5,4.46,0,7-3.46,7.5-7.5Z"/><path class="cls-5" d="M235.7,93.41c-.16,4.13.35,8.21,2.85,11.62,2.14,2.92,5.32,4.16,7.77,6.58l-2.19-5.3.1.77,1-3.79c1.21-1,1.25-1.12.12-.46a17.68,17.68,0,0,0-2.27,1.67,9.66,9.66,0,0,0-2.7,4.7c-2.58,9.32,11.89,13.29,14.46,4l.21-.78-1.92,3.31a19.88,19.88,0,0,0,2.12-1.39,10.13,10.13,0,0,0,2.76-3.1,8.8,8.8,0,0,0-1.1-10.23c-1.65-1.77-3.84-2.84-5.79-4.22-1.27-.91-.59-1-.35-.13a12,12,0,0,1-.09-3.24c.39-9.66-14.61-9.64-15,0Z"/><path class="cls-6" d="M144.55,60.57l-43-13.09-2.43-8,37.27,11.36c3.59,1.08,6.62,4.69,8.14,9.7Z"/><polygon class="cls-6" points="148.07 72.15 105.08 59.07 102.5 50.57 145.49 63.65 148.07 72.15"/><polygon class="cls-6" points="151.59 83.74 108.6 70.66 106.02 62.16 149.01 75.24 151.59 83.74"/><path class="cls-6" d="M155.1,95.29,118.16,84c-3.8-1.15-7-5-8.62-10.28h0l43,13.08Z"/><path class="cls-6" d="M172,60.57l43-13.09,2.42-8L180.15,50.87c-3.59,1.08-6.62,4.69-8.14,9.7Z"/><polygon class="cls-6" points="168.5 72.15 211.49 59.07 214.07 50.57 171.08 63.65 168.5 72.15"/><polygon class="cls-6" points="164.97 83.74 207.97 70.66 210.54 62.16 167.56 75.24 164.97 83.74"/><path class="cls-6" d="M161.47,95.29,198.4,84c3.8-1.15,7-5,8.62-10.28h0L164,86.83Z"/><text class="cls-7" transform="matrix(1, 0, 0, 1, 15, 141.18)">WINGZ</text><text class="cls-8" transform="matrix(1, 0, 0, 1, 15, 141.18)">WINGZ</text><text class="cls-9" transform="matrix(1, 0, 0, 1, 80.26, 176)">N Thingz</text><text class="cls-10" transform="matrix(1, 0, 0, 1, 80.26, 176)">N Thingz</text><text class="cls-11" transform="matrix(1, 0, 0, 1, 80.26, 176)">N Thingz</text><text class="cls-12" transform="translate(136.16 196.11)">EST. 2020</text></g></g></svg>