<svg xmlns="http://www.w3.org/2000/svg" viewBox="0 0 350 350"><defs><style>.cls-1,.cls-2{fill:#624d58;}.cls-10,.cls-2,.cls-8{stroke:#eb008b;}.cls-10,.cls-2,.cls-3{stroke-miterlimit:10;}.cls-2{stroke-width:3px;}.cls-3{fill:#f9d4e4;stroke:#f9d4e4;stroke-width:5px;}.cls-4{font-size:10px;fill:#ed5da1;}.cls-10,.cls-11,.cls-4,.cls-7,.cls-8,.cls-9{font-family:ChangaOne, Changa One;}.cls-5{fill:#f187b6;}.cls-6{fill:#eb008b;}.cls-7,.cls-8,.cls-9{font-size:40.42px;}.cls-7{fill:#231f20;}.cls-10,.cls-8{fill:none;stroke-width:15px;}.cls-11,.cls-9{fill:#fff;}.cls-10,.cls-11{font-size:96.65px;}</style></defs><title>wings-logo-final</title><g id="Background"><path class="cls-1" d="M181,66.65h0a7.84,7.84,0,0,0,10.73,1.13h0a7.86,7.86,0,0,1,11.66,2.48h0a7.86,7.86,0,0,0,10.26,3.34h0a7.85,7.85,0,0,1,10.9,4.85h0a7.84,7.84,0,0,0,9.34,5.39h0a7.86,7.86,0,0,1,9.65,7h0a7.86,7.86,0,0,0,8,7.22h0a7.86,7.86,0,0,1,8,8.87h0a7.86,7.86,0,0,0,6.34,8.73h0a7.85,7.85,0,0,1,6,10.32h0a7.86,7.86,0,0,0,4.39,9.86h0a7.86,7.86,0,0,1,3.69,11.34h0a7.86,7.86,0,0,0,2.24,10.56h0a7.86,7.86,0,0,1,1.25,11.86h0a7.86,7.86,0,0,0,0,10.79h0a7.86,7.86,0,0,1-1.25,11.86h0a7.85,7.85,0,0,0-2.24,10.55h0a7.86,7.86,0,0,1-3.69,11.34h0a7.86,7.86,0,0,0-4.39,9.86h0a7.86,7.86,0,0,1-6,10.33h0a7.85,7.85,0,0,0-6.34,8.73h0a7.86,7.86,0,0,1-8,8.86h0a7.85,7.85,0,0,0-8,7.22h0a7.86,7.86,0,0,1-9.65,7h0a7.87,7.87,0,0,0-9.35,5.39h0a7.85,7.85,0,0,1-10.89,4.86h0a7.84,7.84,0,0,0-10.26,3.33h0a7.86,7.86,0,0,1-11.67,2.48h0A7.84,7.84,0,0,0,181,283.35h0a7.87,7.87,0,0,1-11.93,0h0a7.84,7.84,0,0,0-10.73-1.13h0a7.86,7.86,0,0,1-11.66-2.48h0a7.86,7.86,0,0,0-10.26-3.34h0a7.85,7.85,0,0,1-10.9-4.85h0a7.84,7.84,0,0,0-9.34-5.39h0a7.86,7.86,0,0,1-9.65-7h0a7.86,7.86,0,0,0-8-7.22h0a7.86,7.86,0,0,1-8-8.87h0a7.86,7.86,0,0,0-6.34-8.73h0a7.85,7.85,0,0,1-6-10.32h0a7.86,7.86,0,0,0-4.39-9.86h0a7.86,7.86,0,0,1-3.69-11.34h0a7.86,7.86,0,0,0-2.24-10.56h0a7.86,7.86,0,0,1-1.25-11.86h0a7.86,7.86,0,0,0,0-10.79h0a7.86,7.86,0,0,1,1.25-11.86h0a7.85,7.85,0,0,0,2.24-10.55h0a7.86,7.86,0,0,1,3.69-11.34h0A7.86,7.86,0,0,0,78.19,126h0a7.86,7.86,0,0,1,6-10.33h0a7.85,7.85,0,0,0,6.34-8.73h0a7.86,7.86,0,0,1,8-8.86h0a7.85,7.85,0,0,0,8-7.22h0a7.86,7.86,0,0,1,9.65-7h0a7.87,7.87,0,0,0,9.35-5.39h0a7.85,7.85,0,0,1,10.89-4.86h0a7.84,7.84,0,0,0,10.26-3.33h0a7.86,7.86,0,0,1,11.67-2.48h0A7.84,7.84,0,0,0,169,66.65h0A7.87,7.87,0,0,1,181,66.65Z"/><circle class="cls-2" cx="175" cy="175" r="99.12"/></g><g id="Mid-Background"><circle class="cls-3" cx="175" cy="175" r="92.1"/><text class="cls-4" transform="translate(152.88 262.04)">EST. 2020</text></g><g id="Wings"><path class="cls-5" d="M161.27,126.5l-43-13.08-2.42-8,37.27,11.36c3.59,1.09,6.62,4.69,8.14,9.7Z"/><polygon class="cls-5" points="164.78 138.09 121.8 125.01 119.22 116.51 162.21 129.59 164.78 138.09"/><polygon class="cls-5" points="168.31 149.68 125.32 136.6 122.74 128.1 165.73 141.18 168.31 149.68"/><path class="cls-5" d="M171.82,161.22,134.88,150c-3.8-1.15-7-5-8.62-10.28h0l43,13.08Z"/><path class="cls-5" d="M188.73,126.5l43-13.08,2.42-8L196.87,116.8c-3.59,1.09-6.62,4.69-8.14,9.7Z"/><polygon class="cls-5" points="185.22 138.09 228.2 125.01 230.78 116.51 187.79 129.59 185.22 138.09"/><polygon class="cls-5" points="181.69 149.68 224.68 136.6 227.26 128.1 184.27 141.18 181.69 149.68"/><path class="cls-5" d="M178.18,161.22,215.12,150c3.8-1.15,7-5,8.62-10.28h0l-43,13.08Z"/></g><g id="Wings-Logo"><polygon class="cls-6" points="89.34 227 258.63 227 266.5 209.96 273.5 170.96 266.5 142.96 82.5 205.96 89.34 227"/><text class="cls-7" transform="matrix(1, 0, 0, 1, 96.98, 241.93)">N Thingz</text><text class="cls-8" transform="matrix(1, 0, 0, 1, 96.98, 241.93)">N Thingz</text><text class="cls-9" transform="matrix(1, 0, 0, 1, 96.98, 241.93)">N Thingz</text><text class="cls-10" transform="matrix(1, 0, 0, 1, 31.72, 207.12)">WINGZ</text><text class="cls-11" transform="matrix(1, 0, 0, 1, 31.72, 207.12)">WINGZ</text></g></svg>