<svg xmlns="http://www.w3.org/2000/svg" viewBox="0 0 314.15 222.17"><defs><style>.cls-1,.cls-2{fill:#624d58;}.cls-10,.cls-2,.cls-8{stroke:#eb008b;}.cls-10,.cls-2,.cls-3{stroke-miterlimit:10;}.cls-2{stroke-width:3px;}.cls-3{fill:#f9d4e4;stroke:#f9d4e4;stroke-width:5px;}.cls-4{font-size:10px;fill:#ed5da1;}.cls-10,.cls-11,.cls-4,.cls-7,.cls-8,.cls-9{font-family:ChangaOne, Changa One;}.cls-5{fill:#eb008b;}.cls-6{fill:#f187b6;}.cls-7,.cls-8,.cls-9{font-size:40.42px;}.cls-7{fill:#231f20;}.cls-10,.cls-8{fill:none;stroke-width:15px;}.cls-11,.cls-9{fill:#fff;}.cls-10,.cls-11{font-size:96.65px;}</style></defs><title>wings-logo-final</title><g id="wingsLogoOuterRingBackground"><path class="cls-1" d="M181,66.65h0a7.84,7.84,0,0,0,10.73,1.13h0a7.86,7.86,0,0,1,11.66,2.48h0a7.86,7.86,0,0,0,10.26,3.34h0a7.85,7.85,0,0,1,10.9,4.85h0a7.84,7.84,0,0,0,9.34,5.39h0a7.86,7.86,0,0,1,9.65,7h0a7.86,7.86,0,0,0,8,7.22h0a7.86,7.86,0,0,1,8,8.87h0a7.86,7.86,0,0,0,6.34,8.73h0a7.85,7.85,0,0,1,6,10.32h0a7.86,7.86,0,0,0,4.39,9.86h0a7.86,7.86,0,0,1,3.69,11.34h0a7.86,7.86,0,0,0,2.24,10.56h0a7.86,7.86,0,0,1,1.25,11.86h0a7.86,7.86,0,0,0,0,10.79h0a7.86,7.86,0,0,1-1.25,11.86h0a7.85,7.85,0,0,0-2.24,10.55h0a7.86,7.86,0,0,1-3.69,11.34h0a7.86,7.86,0,0,0-4.39,9.86h0a7.86,7.86,0,0,1-6,10.33h0a7.85,7.85,0,0,0-6.34,8.73h0a7.86,7.86,0,0,1-8,8.86h0a7.85,7.85,0,0,0-8,7.22h0a7.86,7.86,0,0,1-9.65,7h0a7.87,7.87,0,0,0-9.35,5.39h0a7.85,7.85,0,0,1-10.89,4.86h0a7.84,7.84,0,0,0-10.26,3.33h0a7.86,7.86,0,0,1-11.67,2.48h0A7.84,7.84,0,0,0,181,283.35h0a7.87,7.87,0,0,1-11.93,0h0a7.84,7.84,0,0,0-10.73-1.13h0a7.86,7.86,0,0,1-11.66-2.48h0a7.86,7.86,0,0,0-10.26-3.34h0a7.85,7.85,0,0,1-10.9-4.85h0a7.84,7.84,0,0,0-9.34-5.39h0a7.86,7.86,0,0,1-9.65-7h0a7.86,7.86,0,0,0-8-7.22h0a7.86,7.86,0,0,1-8-8.87h0a7.86,7.86,0,0,0-6.34-8.73h0a7.85,7.85,0,0,1-6-10.32h0a7.86,7.86,0,0,0-4.39-9.86h0a7.86,7.86,0,0,1-3.69-11.34h0a7.86,7.86,0,0,0-2.24-10.56h0a7.86,7.86,0,0,1-1.25-11.86h0a7.86,7.86,0,0,0,0-10.79h0a7.86,7.86,0,0,1,1.25-11.86h0a7.85,7.85,0,0,0,2.24-10.55h0a7.86,7.86,0,0,1,3.69-11.34h0A7.86,7.86,0,0,0,78.19,126h0a7.86,7.86,0,0,1,6-10.33h0a7.85,7.85,0,0,0,6.34-8.73h0a7.86,7.86,0,0,1,8-8.86h0a7.85,7.85,0,0,0,8-7.22h0a7.86,7.86,0,0,1,9.65-7h0a7.87,7.87,0,0,0,9.35-5.39h0a7.85,7.85,0,0,1,10.89-4.86h0a7.84,7.84,0,0,0,10.26-3.33h0a7.86,7.86,0,0,1,11.67-2.48h0A7.84,7.84,0,0,0,169,66.65h0A7.87,7.87,0,0,1,181,66.65Z" transform="translate(-16.72 -63.91)"/><circle class="cls-2" cx="158.28" cy="111.09" r="99.12"/></g><g id="wingsLogoMidBackground"><circle class="cls-3" cx="158.28" cy="111.09" r="92.1"/><text class="cls-4" transform="translate(136.16 198.13)">EST. 2020</text><polygon class="cls-5" points="72.62 163.09 241.91 163.09 249.78 146.04 256.78 107.05 249.78 79.05 65.78 142.04 72.62 163.09"/></g><g id="wingsLogoWings"><path class="cls-6" d="M161.27,126.5l-43-13.08-2.42-8,37.27,11.36c3.59,1.09,6.62,4.69,8.14,9.7Z" transform="translate(-16.72 -63.91)"/><polygon class="cls-6" points="148.07 74.18 105.08 61.09 102.5 52.59 145.49 65.68 148.07 74.18"/><polygon class="cls-6" points="151.59 85.77 108.6 72.68 106.02 64.19 149.01 77.27 151.59 85.77"/><path class="cls-6" d="M171.82,161.22,134.88,150c-3.8-1.15-7-5-8.62-10.28h0l43,13.08Z" transform="translate(-16.72 -63.91)"/><path class="cls-6" d="M188.73,126.5l43-13.08,2.42-8L196.87,116.8c-3.59,1.09-6.62,4.69-8.14,9.7Z" transform="translate(-16.72 -63.91)"/><polygon class="cls-6" points="168.5 74.18 211.49 61.09 214.07 52.59 171.08 65.68 168.5 74.18"/><polygon class="cls-6" points="164.97 85.77 207.96 72.68 210.54 64.19 167.56 77.27 164.97 85.77"/><path class="cls-6" d="M178.18,161.22,215.12,150c3.8-1.15,7-5,8.62-10.28h0l-43,13.08Z" transform="translate(-16.72 -63.91)"/></g><g id="wingsLogoLetters"><text class="cls-7" transform="matrix(1, 0, 0, 1, 80.26, 182.02)">N Thingz</text><text class="cls-8" transform="matrix(1, 0, 0, 1, 80.26, 182.02)">N Thingz</text><text class="cls-9" transform="matrix(1, 0, 0, 1, 80.26, 182.02)">N Thingz</text><text class="cls-10" transform="matrix(1, 0, 0, 1, 15, 147.21)">WINGZ</text><text class="cls-11" transform="matrix(1, 0, 0, 1, 15, 147.21)">WINGZ</text></g></svg>