<svg width="106" height="31" viewBox="0 0 106 31" fill="none" xmlns="http://www.w3.org/2000/svg">
<path d="M101.372 31H4.51246C2.38176 31 0.639648 29.2579 0.639648 27.1272V3.87721C0.639648 1.74651 2.38176 0.00439453 4.51246 0.00439453H101.372C103.503 0.00439453 105.245 1.74651 105.245 3.87721V27.1228C105.249 29.2535 103.503 31 101.372 31Z" fill="black"/>
<path d="M101.372 0.624395C103.167 0.624395 104.625 2.0827 104.625 3.87721V27.1228C104.625 28.9174 103.167 30.3757 101.372 30.3757H4.51246C2.71796 30.3757 1.25965 28.9174 1.25965 27.1228V3.87721C1.25965 2.0827 2.71796 0.624395 4.51246 0.624395H101.372ZM101.372 0.00439453H4.51246C2.38176 0.00439453 0.639648 1.74651 0.639648 3.87721V27.1228C0.639648 29.2535 2.38176 30.9957 4.51246 30.9957H101.372C103.503 30.9957 105.245 29.2535 105.245 27.1228V3.87721C105.249 1.74651 103.503 0.00439453 101.372 0.00439453Z" fill="#A6A6A6"/>
<path d="M37.3855 7.94213C37.3855 8.5927 37.1934 9.10791 36.8092 9.49213C36.3726 9.95058 35.8006 10.182 35.102 10.182C34.4296 10.182 33.862 9.95058 33.3905 9.4834C32.9189 9.01622 32.6875 8.43988 32.6875 7.75439C32.6875 7.06453 32.9233 6.48819 33.3905 6.02537C33.8577 5.55819 34.4296 5.32678 35.102 5.32678C35.4338 5.32678 35.7526 5.39228 36.0582 5.52326C36.3595 5.65425 36.604 5.82453 36.7874 6.04284L36.377 6.45326C36.067 6.0865 35.6434 5.90312 35.102 5.90312C34.613 5.90312 34.1895 6.0734 33.8314 6.41833C33.4734 6.76326 33.2944 7.20861 33.2944 7.75875C33.2944 8.30889 33.4734 8.75425 33.8314 9.09918C34.1895 9.44411 34.613 9.61439 35.102 9.61439C35.6216 9.61439 36.0538 9.43974 36.3988 9.09481C36.6215 8.86777 36.7524 8.55777 36.7874 8.15171H35.0977V7.59284H37.3506C37.3724 7.71073 37.3855 7.82861 37.3855 7.94213Z" fill="white" stroke="white" stroke-width="0.2" stroke-miterlimit="10"/>
<path d="M40.957 5.9991H38.8394V7.47487H40.7474V8.03374H38.8394V9.50952H40.957V10.0815H38.2412V5.42712H40.957V5.9991Z" fill="white" stroke="white" stroke-width="0.2" stroke-miterlimit="10"/>
<path d="M43.4721 10.0771H42.8739V5.9991H41.5771V5.42712H44.7732V5.9991H43.4764V10.0771H43.4721Z" fill="white" stroke="white" stroke-width="0.2" stroke-miterlimit="10"/>
<path d="M47.083 10.0771V5.42712H47.6812V10.0771H47.083Z" fill="white" stroke="white" stroke-width="0.2" stroke-miterlimit="10"/>
<path d="M50.3315 10.0771H49.7333V5.9991H48.4365V5.42712H51.6326V5.9991H50.3358V10.0771H50.3315Z" fill="white" stroke="white" stroke-width="0.2" stroke-miterlimit="10"/>
<path d="M57.68 9.47464C57.2216 9.94619 56.6539 10.1776 55.9772 10.1776C55.2961 10.1776 54.7284 9.94183 54.2744 9.47464C53.8159 9.00309 53.5889 8.43112 53.5889 7.74999C53.5889 7.06887 53.8159 6.4969 54.2744 6.02535C54.7284 5.5538 55.3004 5.32239 55.9772 5.32239C56.6539 5.32239 57.2216 5.55816 57.68 6.02971C58.1385 6.50126 58.3699 7.07323 58.3699 7.74999C58.3611 8.43112 58.1341 9.00746 57.68 9.47464ZM54.711 9.08605C55.0559 9.43535 55.4751 9.61 55.9728 9.61C56.4706 9.61 56.8941 9.43535 57.2346 9.08605C57.5796 8.73676 57.7499 8.2914 57.7499 7.74999C57.7499 7.20859 57.5752 6.76323 57.2346 6.41394C56.8897 6.06464 56.4706 5.88999 55.9728 5.88999C55.4751 5.88999 55.0559 6.06464 54.711 6.41394C54.3661 6.76323 54.1958 7.20859 54.1958 7.74999C54.1958 8.2914 54.3661 8.73676 54.711 9.08605Z" fill="white" stroke="white" stroke-width="0.2" stroke-miterlimit="10"/>
<path d="M59.1992 10.0771V5.42712H59.9284L62.1901 9.04233H62.2163L62.1901 8.14726V5.42712H62.7882V10.0771H62.1639L59.8018 6.28726H59.7756L59.8018 7.18234V10.0771H59.1992Z" fill="white" stroke="white" stroke-width="0.2" stroke-miterlimit="10"/>
<path d="M53.4356 16.8579C51.6149 16.8579 50.126 18.242 50.126 20.1544C50.126 22.0537 51.6105 23.4509 53.4356 23.4509C55.2563 23.4509 56.7452 22.0537 56.7452 20.1544C56.7452 18.242 55.2607 16.8579 53.4356 16.8579ZM53.4356 22.1498C52.4357 22.1498 51.5756 21.3246 51.5756 20.1544C51.5756 18.9668 52.4357 18.1591 53.4356 18.1591C54.4354 18.1591 55.2956 18.9712 55.2956 20.1544C55.2956 21.3289 54.4354 22.1498 53.4356 22.1498ZM46.2183 16.8579C44.3976 16.8579 42.9087 18.242 42.9087 20.1544C42.9087 22.0537 44.3932 23.4509 46.2183 23.4509C48.039 23.4509 49.5278 22.0537 49.5278 20.1544C49.5278 18.242 48.0433 16.8579 46.2183 16.8579ZM46.2183 22.1498C45.2184 22.1498 44.3583 21.3246 44.3583 20.1544C44.3583 18.9668 45.2184 18.1591 46.2183 18.1591C47.2181 18.1591 48.0783 18.9712 48.0783 20.1544C48.0783 21.3289 47.2181 22.1498 46.2183 22.1498ZM37.6343 17.8709V19.2681H40.9788C40.8784 20.054 40.6164 20.6303 40.2191 21.0277C39.7301 21.5167 38.9704 22.0493 37.6343 22.0493C35.5735 22.0493 33.9623 20.3902 33.9623 18.3293C33.9623 16.2685 35.5735 14.6093 37.6343 14.6093C38.7433 14.6093 39.5554 15.046 40.158 15.6092L41.1447 14.6224C40.3064 13.8234 39.1974 13.2122 37.6387 13.2122C34.8181 13.2122 32.4473 15.5088 32.4473 18.3293C32.4473 21.1499 34.8181 23.4465 37.6387 23.4465C39.1625 23.4465 40.3108 22.9488 41.2102 22.01C42.1359 21.0844 42.4197 19.7877 42.4197 18.7398C42.4197 18.4167 42.3935 18.1154 42.3454 17.8665H37.6343V17.8709ZM72.7429 18.9537C72.4678 18.2158 71.6339 16.8579 69.9223 16.8579C68.2239 16.8579 66.8136 18.194 66.8136 20.1544C66.8136 22.0013 68.2108 23.4509 70.0839 23.4509C71.5946 23.4509 72.4678 22.5253 72.8302 21.9882L71.7081 21.2372C71.3326 21.7874 70.8218 22.1498 70.0839 22.1498C69.346 22.1498 68.8221 21.8136 68.4859 21.1499L72.8914 19.3292L72.7429 18.9537ZM68.2501 20.054C68.2108 18.7791 69.2368 18.1329 69.9747 18.1329C70.5511 18.1329 71.0357 18.421 71.1973 18.8315L68.2501 20.054ZM64.6654 23.25H66.115V13.5615H64.6654V23.25ZM62.2946 17.5958H62.2466C61.9235 17.2072 61.2991 16.8579 60.5132 16.8579C58.8671 16.8579 57.3564 18.3075 57.3564 20.1675C57.3564 22.0144 58.8671 23.4509 60.5132 23.4509C61.2991 23.4509 61.9235 23.1016 62.2466 22.6999H62.2946V23.1758C62.2946 24.4377 61.6222 25.11 60.535 25.11C59.6487 25.11 59.0985 24.4726 58.8759 23.9355L57.614 24.4595C57.9764 25.3327 58.937 26.4068 60.535 26.4068C62.2335 26.4068 63.67 25.4069 63.67 22.975V17.0588H62.2946V17.5958ZM60.6354 22.1498C59.6356 22.1498 58.8016 21.3115 58.8016 20.1631C58.8016 19.0017 59.6399 18.1547 60.6354 18.1547C61.6222 18.1547 62.395 19.0017 62.395 20.1631C62.395 21.3158 61.6222 22.1498 60.6354 22.1498ZM79.528 13.5615H76.0612V23.25H77.5064V19.5781H79.5236C81.126 19.5781 82.7022 18.4167 82.7022 16.5698C82.7022 14.7229 81.1304 13.5615 79.528 13.5615ZM79.5629 18.2333H77.5064V14.9106H79.5629C80.6457 14.9106 81.257 15.8057 81.257 16.5698C81.257 17.3208 80.6457 18.2333 79.5629 18.2333ZM88.5005 16.8405C87.4526 16.8405 86.3698 17.3033 85.9201 18.325L87.2038 18.862C87.4788 18.325 87.9897 18.1503 88.5267 18.1503C89.2733 18.1503 90.0331 18.6 90.0462 19.3947V19.4951C89.7842 19.3467 89.2253 19.1196 88.5398 19.1196C87.1557 19.1196 85.7498 19.8793 85.7498 21.3027C85.7498 22.5995 86.885 23.4334 88.1556 23.4334C89.1293 23.4334 89.6619 22.9968 89.9981 22.486H90.0462V23.2326H91.4433V19.5169C91.439 17.801 90.1553 16.8405 88.5005 16.8405ZM88.3259 22.1498C87.8543 22.1498 87.1907 21.914 87.1907 21.3289C87.1907 20.5823 88.0115 20.2941 88.7232 20.2941C89.3607 20.2941 89.6576 20.4295 90.0462 20.6172C89.9326 21.5123 89.1598 22.1498 88.3259 22.1498ZM96.5256 17.05L94.8664 21.2503H94.8184L93.0981 17.05H91.5394L94.1198 22.9182L92.6484 26.1841H94.1547L98.1324 17.05H96.5256ZM83.5012 23.25H84.9464V13.5615H83.5012V23.25Z" fill="white"/>
<path d="M8.72618 5.84628C8.49914 6.08642 8.36816 6.45318 8.36816 6.93347V24.0708C8.36816 24.5511 8.50351 24.9222 8.72618 25.158L8.78294 25.2147L18.3842 15.6135V15.4999V15.3864L8.78294 5.78516L8.72618 5.84628Z" fill="url(#paint0_linear)"/>
<path d="M21.5842 18.8139L18.3838 15.6135V15.5V15.3865L21.5842 12.186L21.6584 12.2253L25.4483 14.3779C26.5311 14.9935 26.5311 15.9977 25.4483 16.6134L21.6541 18.7746L21.5842 18.8139Z" fill="url(#paint1_linear)"/>
<path d="M21.6544 18.7746L18.3797 15.5L8.72168 25.158C9.07971 25.5379 9.66915 25.5815 10.3328 25.2061L21.6544 18.7746Z" fill="url(#paint2_linear)"/>
<path d="M21.6544 12.2298L10.3328 5.79837C9.66915 5.42288 9.07971 5.46654 8.72168 5.8464L18.3797 15.5044L21.6544 12.2298Z" fill="url(#paint3_linear)"/>
<path opacity="0.2" d="M21.585 18.7004L10.3377 25.0926C9.70896 25.4506 9.14572 25.4244 8.78333 25.1013L8.72656 25.158L8.78333 25.2148C9.14572 25.5423 9.70459 25.5641 10.3377 25.2061L21.6549 18.7747L21.585 18.7004Z" fill="black"/>
<path opacity="0.12" d="M8.72618 25.0446C8.49914 24.8044 8.36816 24.4377 8.36816 23.9574V24.0709C8.36816 24.5512 8.50351 24.9223 8.72618 25.1581L8.78294 25.1013L8.72618 25.0446Z" fill="black"/>
<path opacity="0.12" d="M25.4491 16.5086L21.585 18.7048L21.6592 18.7791L25.4491 16.6265C25.9905 16.3209 26.2612 15.9148 26.2612 15.5088C26.2131 15.8668 25.9381 16.2292 25.4491 16.5086Z" fill="black"/>
<path opacity="0.25" d="M10.3373 5.91185L25.4487 14.4958C25.9377 14.7752 26.2172 15.1333 26.2608 15.5C26.2608 15.094 25.9901 14.6879 25.4487 14.3823L10.3373 5.79833C9.25449 5.18269 8.36816 5.69354 8.36816 6.93354V7.04706C8.36816 5.80706 9.25449 5.29621 10.3373 5.91185Z" fill="white"/>
<defs>
<linearGradient id="paint0_linear" x1="17.5325" y1="6.75209" x2="4.52823" y2="19.7563" gradientUnits="userSpaceOnUse">
<stop stop-color="#00A0FF"/>
<stop offset="0.00657445" stop-color="#00A1FF"/>
<stop offset="0.2601" stop-color="#00BEFF"/>
<stop offset="0.5122" stop-color="#00D2FF"/>
<stop offset="0.7604" stop-color="#00DFFF"/>
<stop offset="1" stop-color="#00E3FF"/>
</linearGradient>
<linearGradient id="paint1_linear" x1="26.8574" y1="15.5018" x2="8.10785" y2="15.5018" gradientUnits="userSpaceOnUse">
<stop stop-color="#FFE000"/>
<stop offset="0.4087" stop-color="#FFBD00"/>
<stop offset="0.7754" stop-color="#FFA500"/>
<stop offset="1" stop-color="#FF9C00"/>
</linearGradient>
<linearGradient id="paint2_linear" x1="19.878" y1="17.2798" x2="2.24325" y2="34.9146" gradientUnits="userSpaceOnUse">
<stop stop-color="#FF3A44"/>
<stop offset="1" stop-color="#C31162"/>
</linearGradient>
<linearGradient id="paint3_linear" x1="6.29482" y1="0.139823" x2="14.1695" y2="8.01447" gradientUnits="userSpaceOnUse">
<stop stop-color="#32A071"/>
<stop offset="0.0685" stop-color="#2DA771"/>
<stop offset="0.4762" stop-color="#15CF74"/>
<stop offset="0.8009" stop-color="#06E775"/>
<stop offset="1" stop-color="#00F076"/>
</linearGradient>
</defs>
</svg>
