<svg width="93" height="31" viewBox="0 0 93 31" fill="none" xmlns="http://www.w3.org/2000/svg">
<path d="M85.3504 0H7.38761C7.1038 0 6.82437 0 6.54056 0C6.30479 0 6.06901 0.0043662 5.82887 0.00873239C5.31366 0.021831 4.78972 0.0523944 4.27451 0.144085C3.75493 0.240141 3.27465 0.392958 2.8031 0.633099C2.34028 0.873239 1.91676 1.17887 1.55 1.54563C1.17887 1.91676 0.868873 2.34028 0.633099 2.8031C0.392958 3.27465 0.240141 3.7593 0.148451 4.27887C0.0567606 4.79408 0.021831 5.3093 0.00873239 5.82887C0.0043662 6.06901 0.0043662 6.30479 0 6.54493C0 6.82437 0 7.10817 0 7.39197V23.6124C0 23.9006 0 24.18 0 24.4594C0.0043662 24.6996 0.0043662 24.931 0.0130986 25.1755C0.0261972 25.6951 0.0567606 26.2146 0.152817 26.7255C0.244507 27.2451 0.397324 27.7297 0.637465 28.2013C0.873239 28.6641 1.17887 29.0876 1.55 29.4544C1.91676 29.8211 2.34028 30.1268 2.8031 30.3625C3.27465 30.6027 3.7593 30.7555 4.27451 30.8516C4.78972 30.9432 5.31366 30.9738 5.82887 30.9869C6.06901 30.9913 6.30479 30.9956 6.54056 30.9956C6.82437 30.9956 7.1038 30.9956 7.38761 30.9956H85.3461C85.6255 30.9956 85.9093 30.9956 86.1844 30.9956C86.4201 30.9956 86.6646 30.9913 86.9004 30.9869C87.42 30.9738 87.9396 30.9432 88.4504 30.8516C88.97 30.7599 89.4503 30.607 89.9306 30.3625C90.3934 30.1268 90.8169 29.8211 91.1837 29.45C91.5548 29.0876 91.8604 28.6597 92.1006 28.1969C92.3363 27.7254 92.4935 27.2407 92.5808 26.7211C92.6769 26.2059 92.7075 25.6907 92.7249 25.1711C92.7293 24.931 92.7293 24.6952 92.7293 24.4551C92.7337 24.1756 92.7337 23.8918 92.7337 23.608V7.39197C92.7337 7.10817 92.7337 6.82873 92.7293 6.54493C92.7293 6.30915 92.7293 6.06901 92.7249 5.83324C92.7075 5.31366 92.6769 4.79408 92.5808 4.28324C92.4935 3.76366 92.3407 3.27901 92.1006 2.80746C91.8604 2.34465 91.5548 1.91676 91.1837 1.55C90.8169 1.18324 90.3934 0.873239 89.9306 0.637465C89.4547 0.397324 88.97 0.244507 88.4504 0.152817C87.9396 0.0611268 87.42 0.0305634 86.9004 0.0174648C86.6646 0.0130986 86.4201 0.00873239 86.1844 0.00873239C85.9093 0 85.6255 0 85.3504 0Z" fill="#B6B6B6"/>
<path d="M6.54539 30.3189C6.30961 30.3189 6.0782 30.3145 5.84243 30.3102C5.41018 30.2971 4.89497 30.2752 4.39285 30.1835C3.9213 30.0962 3.49778 29.9609 3.10919 29.76C2.70313 29.5548 2.34074 29.2885 2.02637 28.9741C1.70764 28.6597 1.4413 28.2973 1.23609 27.8913C1.03525 27.4983 0.899894 27.0792 0.816936 26.6076C0.72088 26.0881 0.699049 25.5554 0.68595 25.1537C0.681584 24.9921 0.672852 24.4464 0.672852 24.4464V6.54496C0.672852 6.54496 0.681584 6.00791 0.68595 5.85073C0.694683 5.44467 0.72088 4.91636 0.81257 4.40115C0.895528 3.92524 1.03088 3.50608 1.23172 3.11312C1.43694 2.70707 1.70327 2.34467 2.01764 2.03031C2.34511 1.70721 2.71187 1.44087 3.10919 1.23566C3.51088 1.03481 3.93004 0.895096 4.39285 0.816504C4.9168 0.724814 5.44511 0.698617 5.8468 0.689885L6.54539 0.681152H86.1848L86.8922 0.689885C87.2895 0.698617 87.8178 0.724814 88.333 0.816504C88.8002 0.899462 89.2237 1.03918 89.6298 1.24003C90.0271 1.44524 90.3895 1.70721 90.7082 2.02594C91.027 2.34031 91.2889 2.70707 91.5029 3.11312C91.7037 3.51045 91.8391 3.9296 91.9177 4.39242C92.0094 4.88143 92.0355 5.38355 92.053 5.8551C92.0574 6.07341 92.0574 6.30918 92.0574 6.54496C92.0617 6.83749 92.0617 7.11256 92.0617 7.392V23.6124C92.0617 23.8919 92.0617 24.1669 92.0574 24.4464C92.0574 24.6996 92.0574 24.931 92.053 25.1668C92.0355 25.6252 92.0093 26.123 91.922 26.6033C91.8434 27.0792 91.7037 27.4983 91.5029 27.8957C91.2933 28.2973 91.027 28.6641 90.717 28.9697C90.3982 29.2928 90.0315 29.5592 89.6341 29.76C89.2324 29.9652 88.822 30.1006 88.3417 30.1879C87.844 30.2796 87.3331 30.3014 86.8922 30.3145C86.6651 30.3189 86.4293 30.3233 86.1979 30.3233H85.3596L6.54539 30.3189Z" fill="black"/>
<path d="M19.1934 15.7315C19.1759 13.6008 20.9399 12.5616 21.0184 12.5136C20.0186 11.0553 18.4686 10.8588 17.9272 10.8413C16.6261 10.706 15.3642 11.6185 14.7006 11.6185C14.0238 11.6185 13.0021 10.8544 11.9062 10.8763C10.4915 10.8981 9.16422 11.7189 8.43943 12.9895C6.94183 15.583 8.05957 19.3991 9.49605 21.4949C10.2165 22.5209 11.0548 23.6692 12.1507 23.6299C13.2248 23.5863 13.6265 22.9444 14.9232 22.9444C16.2069 22.9444 16.5868 23.6299 17.7045 23.6037C18.8572 23.5863 19.5863 22.5733 20.2762 21.5341C21.1058 20.3553 21.4376 19.1982 21.4551 19.1371C21.4289 19.1327 19.2152 18.2901 19.1934 15.7315Z" fill="white"/>
<path d="M17.0754 9.46156C17.6517 8.73677 18.049 7.75438 17.9399 6.75452C17.1016 6.78945 16.058 7.33085 15.4555 8.04254C14.9228 8.66691 14.4469 9.6886 14.5692 10.6492C15.5079 10.719 16.4728 10.1732 17.0754 9.46156Z" fill="white"/>
<path d="M32.7807 21.032H29.1131L28.2311 23.6342H26.6768L30.1523 14.0111H31.7677L35.2432 23.6342H33.6627L32.7807 21.032ZM29.493 19.8312H32.4008L30.9687 15.6091H30.9294L29.493 19.8312Z" fill="white"/>
<path d="M42.7447 20.1239C42.7447 22.3026 41.5789 23.7041 39.815 23.7041C38.8151 23.7041 38.0204 23.2588 37.6057 22.4772H37.5707V25.9527H36.1299V16.6178H37.5227V17.7836H37.5489C37.9506 17.0326 38.802 16.5436 39.7844 16.5436C41.5702 16.5436 42.7447 17.9495 42.7447 20.1239ZM41.2645 20.1239C41.2645 18.7048 40.531 17.7705 39.4089 17.7705C38.3086 17.7705 37.5664 18.7223 37.5664 20.1239C37.5664 21.5385 38.3086 22.486 39.4089 22.486C40.531 22.486 41.2645 21.5603 41.2645 20.1239Z" fill="white"/>
<path d="M50.4683 20.1239C50.4683 22.3026 49.3025 23.7041 47.5386 23.7041C46.5387 23.7041 45.7441 23.2588 45.3293 22.4772H45.2944V25.9527H43.8535V16.6178H45.2463V17.7836H45.2725C45.6742 17.0326 46.5256 16.5436 47.508 16.5436C49.2938 16.5436 50.4683 17.9495 50.4683 20.1239ZM48.9882 20.1239C48.9882 18.7048 48.2546 17.7705 47.1325 17.7705C46.0322 17.7705 45.29 18.7223 45.29 20.1239C45.29 21.5385 46.0322 22.486 47.1325 22.486C48.2546 22.486 48.9882 21.5603 48.9882 20.1239Z" fill="white"/>
<path d="M55.5725 20.9534C55.6772 21.9096 56.6072 22.534 57.8734 22.534C59.0872 22.534 59.9605 21.9052 59.9605 21.0451C59.9605 20.2985 59.4322 19.8488 58.1878 19.5431L56.9391 19.2419C55.1708 18.814 54.3499 17.9888 54.3499 16.6483C54.3499 14.9892 55.7951 13.8496 57.8516 13.8496C59.8863 13.8496 61.2791 14.9892 61.3271 16.6483H59.8732C59.7858 15.6878 58.9912 15.1071 57.8341 15.1071C56.6771 15.1071 55.8781 15.6921 55.8781 16.5479C55.8781 17.229 56.3846 17.6307 57.6246 17.9364L58.6856 18.1983C60.6591 18.6655 61.4799 19.4602 61.4799 20.8661C61.4799 22.665 60.0478 23.7958 57.7643 23.7958C55.6292 23.7958 54.1884 22.6955 54.0967 20.9534H55.5725Z" fill="white"/>
<path d="M64.5885 14.9586V16.6178H65.9246V17.7574H64.5885V21.6258C64.5885 22.2283 64.8548 22.5078 65.4443 22.5078C65.5927 22.5078 65.8241 22.4859 65.9202 22.4728V23.6081C65.7586 23.6474 65.4399 23.6736 65.1212 23.6736C63.7022 23.6736 63.1477 23.1409 63.1477 21.7786V17.7574H62.126V16.6178H63.1477V14.9586H64.5885Z" fill="white"/>
<path d="M66.6973 20.1239C66.6973 17.9146 67.9984 16.5305 70.0243 16.5305C72.059 16.5305 73.3514 17.919 73.3514 20.1239C73.3514 22.3376 72.0633 23.7173 70.0243 23.7173C67.9809 23.7216 66.6973 22.3376 66.6973 20.1239ZM71.8843 20.1239C71.8843 18.6088 71.1901 17.7138 70.0243 17.7138C68.8585 17.7138 68.1643 18.6132 68.1643 20.1239C68.1643 21.6433 68.8585 22.5297 70.0243 22.5297C71.1901 22.5297 71.8843 21.6477 71.8843 20.1239Z" fill="white"/>
<path d="M74.5391 16.6177H75.9144V17.814H75.9493C76.1677 17.0194 76.8095 16.5479 77.6391 16.5479C77.8443 16.5479 78.0189 16.574 78.1324 16.6002V17.9494C78.0189 17.9014 77.7657 17.8621 77.4862 17.8621C76.5606 17.8621 75.9843 18.4908 75.9843 19.4776V23.6386H74.5434V16.6177H74.5391Z" fill="white"/>
<path d="M84.7685 21.5735C84.5764 22.8484 83.3364 23.7216 81.7471 23.7216C79.7081 23.7216 78.4375 22.355 78.4375 20.1588C78.4375 17.9583 79.7124 16.5305 81.6859 16.5305C83.6289 16.5305 84.8471 17.8622 84.8471 19.9929V20.4863H79.8914V20.5736C79.8914 21.7743 80.6468 22.5602 81.7776 22.5602C82.5767 22.5602 83.2054 22.1804 83.3975 21.5735H84.7685ZM79.8958 19.4777H83.4019C83.3669 18.4036 82.6814 17.6963 81.6816 17.6963C80.6905 17.6963 79.97 18.4167 79.8958 19.4777Z" fill="white"/>
<path d="M29.3148 6.7677C30.6858 6.7677 31.4892 7.61038 31.4892 9.06432C31.4892 10.5401 30.6902 11.3915 29.3148 11.3915H27.6426V6.7677H29.3148ZM28.363 10.7366H29.2362C30.2055 10.7366 30.76 10.134 30.76 9.07305C30.76 8.02953 30.1924 7.41826 29.2362 7.41826H28.363V10.7366Z" fill="white"/>
<path d="M32.3018 9.64498C32.3018 8.5185 32.9305 7.83301 33.9478 7.83301C34.9651 7.83301 35.5939 8.5185 35.5939 9.64498C35.5939 10.7758 34.9695 11.457 33.9478 11.457C32.9261 11.457 32.3018 10.7758 32.3018 9.64498ZM34.8822 9.64498C34.8822 8.88963 34.5416 8.44428 33.9478 8.44428C33.3496 8.44428 33.0134 8.88526 33.0134 9.64498C33.0134 10.4091 33.3496 10.8457 33.9478 10.8457C34.546 10.8457 34.8822 10.4047 34.8822 9.64498Z" fill="white"/>
<path d="M39.9685 11.3915H39.2525L38.532 8.81986H38.4796L37.7636 11.3915H37.0563L36.0957 7.90295H36.7943L37.4187 10.5663H37.4711L38.1871 7.90295H38.8464L39.5625 10.5663H39.6149L40.2349 7.90295H40.9247L39.9685 11.3915Z" fill="white"/>
<path d="M41.7324 7.8985H42.3961V8.45301H42.4485C42.6188 8.06442 42.9637 7.83301 43.492 7.83301C44.2692 7.83301 44.7014 8.30019 44.7014 9.12977V11.3871H44.0116V9.30005C44.0116 8.74118 43.7671 8.46174 43.2606 8.46174C42.7541 8.46174 42.4266 8.8023 42.4266 9.34808V11.3915H41.7368V7.8985H41.7324Z" fill="white"/>
<path d="M45.793 6.53625H46.4828V11.3871H45.793V6.53625Z" fill="white"/>
<path d="M47.4385 9.64498C47.4385 8.5185 48.0672 7.83301 49.0845 7.83301C50.1019 7.83301 50.7306 8.5185 50.7306 9.64498C50.7306 10.7758 50.1062 11.457 49.0845 11.457C48.0672 11.457 47.4385 10.7758 47.4385 9.64498ZM50.0233 9.64498C50.0233 8.88963 49.6827 8.44428 49.0889 8.44428C48.4907 8.44428 48.1545 8.88526 48.1545 9.64498C48.1545 10.4091 48.4907 10.8457 49.0889 10.8457C49.6827 10.8457 50.0233 10.4047 50.0233 9.64498Z" fill="white"/>
<path d="M51.4561 10.4047C51.4561 9.77599 51.9232 9.4136 52.7528 9.36121L53.6959 9.30881V9.00754C53.6959 8.64078 53.4514 8.4312 52.9799 8.4312C52.5956 8.4312 52.3293 8.57092 52.2507 8.8198H51.5827C51.6525 8.22163 52.2158 7.8374 53.0104 7.8374C53.8837 7.8374 54.377 8.27402 54.377 9.01191V11.3959H53.7134V10.9068H53.661C53.4514 11.2561 53.0715 11.4526 52.6131 11.4526C51.9494 11.4482 51.4561 11.0422 51.4561 10.4047ZM53.7003 10.1035V9.81092L52.8489 9.86332C52.3686 9.89388 52.1503 10.0598 52.1503 10.3654C52.1503 10.6798 52.421 10.8632 52.7965 10.8632C53.3161 10.8675 53.7003 10.5357 53.7003 10.1035Z" fill="white"/>
<path d="M55.2939 9.64499C55.2939 8.54034 55.8616 7.84175 56.7435 7.84175C57.2194 7.84175 57.6255 8.06879 57.8132 8.45302H57.8656V6.53625H58.5555V11.3871H57.8962V10.837H57.8438C57.6342 11.2168 57.2282 11.4439 56.7479 11.4439C55.8528 11.4482 55.2939 10.7496 55.2939 9.64499ZM56.0013 9.64499C56.0013 10.3872 56.3506 10.8326 56.9356 10.8326C57.5163 10.8326 57.8744 10.3829 57.8744 9.64935C57.8744 8.9202 57.512 8.46175 56.9356 8.46175C56.3549 8.46175 56.0013 8.91147 56.0013 9.64499Z" fill="white"/>
<path d="M61.3975 9.64498C61.3975 8.5185 62.0262 7.83301 63.0435 7.83301C64.0608 7.83301 64.6896 8.5185 64.6896 9.64498C64.6896 10.7758 64.0652 11.457 63.0435 11.457C62.0262 11.457 61.3975 10.7758 61.3975 9.64498ZM63.9822 9.64498C63.9822 8.88963 63.6417 8.44428 63.0479 8.44428C62.4497 8.44428 62.1135 8.88526 62.1135 9.64498C62.1135 10.4091 62.4497 10.8457 63.0479 10.8457C63.6417 10.8457 63.9822 10.4047 63.9822 9.64498Z" fill="white"/>
<path d="M65.6152 7.8985H66.2789V8.45301H66.3313C66.5016 8.06442 66.8465 7.83301 67.3705 7.83301C68.1476 7.83301 68.5799 8.30019 68.5799 9.12977V11.3871H67.89V9.30005C67.89 8.74118 67.6455 8.46174 67.139 8.46174C66.6326 8.46174 66.3051 8.8023 66.3051 9.34808V11.3915H65.6152V7.8985Z" fill="white"/>
<path d="M72.47 7.02966V7.916H73.2253V8.4967H72.47V10.2912C72.47 10.658 72.6184 10.8152 72.9633 10.8152C73.0681 10.8152 73.1293 10.8108 73.2253 10.7977V11.3697C73.1118 11.3871 72.9852 11.4046 72.8498 11.4046C72.0857 11.4046 71.7801 11.1339 71.7801 10.4615V8.49234H71.2256V7.91164H71.7801V7.02966H72.47Z" fill="white"/>
<path d="M74.1684 6.53625H74.8496V8.45738H74.902C75.0722 8.06442 75.439 7.83302 75.9673 7.83302C76.7096 7.83302 77.168 8.30456 77.168 9.13414V11.3871H76.4781V9.30442C76.4781 8.74555 76.2205 8.46611 75.7315 8.46611C75.1683 8.46611 74.8539 8.82414 74.8539 9.35245V11.3915H74.1641V6.53625H74.1684Z" fill="white"/>
<path d="M81.1853 10.4483C81.0281 11.0727 80.4693 11.4569 79.6746 11.4569C78.6747 11.4569 78.0635 10.7714 78.0635 9.65368C78.0635 8.5403 78.6878 7.82861 79.6702 7.82861C80.6395 7.82861 81.229 8.49227 81.229 9.58819V9.82833H78.7664V9.86763C78.7883 10.4789 79.1463 10.8675 79.6964 10.8675C80.1156 10.8675 80.3994 10.719 80.526 10.444H81.1853V10.4483ZM78.7621 9.32185H80.526C80.5085 8.77608 80.1767 8.41805 79.6659 8.41805C79.155 8.41805 78.8014 8.78044 78.7621 9.32185Z" fill="white"/>
</svg>
